<svg xmlns="http://www.w3.org/2000/svg" xmlns:xlink="http://www.w3.org/1999/xlink" width="1080" zoomAndPan="magnify" viewBox="0 0 810 1439.999935" height="1920" preserveAspectRatio="xMidYMid meet" version="1.0"><defs><clipPath id="197d4354bb"><path d="M 34 0 L 810 0 L 810 1440 L 34 1440 Z M 34 0 " clip-rule="nonzero"/></clipPath><clipPath id="647276fccc"><path d="M 311.875 -183.542969 L 1095.289062 -62.234375 L 818.246094 1726.941406 L 34.832031 1605.636719 Z M 311.875 -183.542969 " clip-rule="nonzero"/></clipPath><clipPath id="223c9bd506"><path d="M -408.148438 -295.03125 L 1381.03125 -17.988281 L 1103.988281 1771.1875 L -685.191406 1494.144531 Z M -408.148438 -295.03125 " clip-rule="nonzero"/></clipPath><clipPath id="638d171cf3"><path d="M 453 0 L 810 0 L 810 236 L 453 236 Z M 453 0 " clip-rule="nonzero"/></clipPath><clipPath id="3e63b3fa15"><path d="M 498.632812 -390.296875 L 1079.710938 -337.179688 L 1026.597656 243.894531 L 445.519531 190.78125 Z M 498.632812 -390.296875 " clip-rule="nonzero"/></clipPath><clipPath id="8d0abeadc3"><path d="M 498.632812 -390.296875 L 1079.710938 -337.179688 L 1026.597656 243.894531 L 445.519531 190.78125 Z M 498.632812 -390.296875 " clip-rule="nonzero"/></clipPath><clipPath id="cf261d4752"><path d="M 0 0 L 646 0 L 646 171 L 0 171 Z M 0 0 " clip-rule="nonzero"/></clipPath><clipPath id="f2e36f181f"><path d="M -93.949219 -330.847656 L 438.777344 -568.90625 L 676.839844 -36.179688 L 144.109375 201.878906 Z M -93.949219 -330.847656 " clip-rule="nonzero"/></clipPath><clipPath id="ef16cea182"><path d="M -93.949219 -330.847656 L 438.777344 -568.90625 L 676.839844 -36.179688 L 144.109375 201.878906 Z M -93.949219 -330.847656 " clip-rule="nonzero"/></clipPath><clipPath id="b064704c03"><path d="M 0 688 L 681 688 L 681 1347 L 0 1347 Z M 0 688 " clip-rule="nonzero"/></clipPath><clipPath id="a060a0e4ba"><path d="M -293.214844 985.839844 L 556.582031 658.953125 L 702.792969 1039.054688 L -147.003906 1365.9375 Z M -293.214844 985.839844 " clip-rule="nonzero"/></clipPath><clipPath id="1ada7f35fd"><path d="M -293.214844 985.839844 L 556.582031 658.953125 L 702.792969 1039.054688 L -147.003906 1365.9375 Z M -293.214844 985.839844 " clip-rule="nonzero"/></clipPath><clipPath id="39beea4e46"><path d="M 0 279 L 227 279 L 227 1440 L 0 1440 Z M 0 279 " clip-rule="nonzero"/></clipPath><clipPath id="ae3b1f1df2"><path d="M -258.828125 279.511719 L 226.636719 354.683594 L 54.949219 1463.46875 L -430.515625 1388.296875 Z M -258.828125 279.511719 " clip-rule="nonzero"/></clipPath><clipPath id="b983079f38"><path d="M -705.132812 210.402344 L 403.65625 382.09375 L 231.964844 1490.878906 L -876.820312 1319.191406 Z M -705.132812 210.402344 " clip-rule="nonzero"/></clipPath><clipPath id="dee4d9d5c2"><path d="M 4 687 L 810 687 L 810 1440 L 4 1440 Z M 4 687 " clip-rule="nonzero"/></clipPath><clipPath id="45f62df423"><path d="M -34.605469 1375.390625 L 522.480469 655.203125 L 844.605469 904.378906 L 287.523438 1624.566406 Z M -34.605469 1375.390625 " clip-rule="nonzero"/></clipPath><clipPath id="dad5b15e43"><path d="M -34.605469 1375.390625 L 522.480469 655.203125 L 844.605469 904.378906 L 287.523438 1624.566406 Z M -34.605469 1375.390625 " clip-rule="nonzero"/></clipPath><clipPath id="5e90c3bc8f"><path d="M 154 831 L 810 831 L 810 1440 L 154 1440 Z M 154 831 " clip-rule="nonzero"/></clipPath><clipPath id="fe1046b417"><path d="M 113.152344 1948.589844 L 472.917969 799.859375 L 986.804688 960.800781 L 627.039062 2109.53125 Z M 113.152344 1948.589844 " clip-rule="nonzero"/></clipPath><clipPath id="2acb5363bf"><path d="M 113.152344 1948.589844 L 472.917969 799.859375 L 986.804688 960.800781 L 627.039062 2109.53125 Z M 113.152344 1948.589844 " clip-rule="nonzero"/></clipPath></defs><rect x="-81" width="972" fill="#ffffff" y="-143.999994" height="1727.999922" fill-opacity="1"/><rect x="-81" width="972" fill="#ffffff" y="-143.999994" height="1727.999922" fill-opacity="1"/><g clip-path="url(#197d4354bb)"><g clip-path="url(#647276fccc)"><g clip-path="url(#223c9bd506)"><path fill="#c46dff" d="M 805.710938 1724.882812 L -386.996094 1540.199219 C -550.992188 1514.804688 -664.394531 1359.851562 -639 1195.851562 L -454.316406 3.144531 C -428.925781 -160.851562 -273.96875 -274.253906 -109.96875 -248.863281 L 1082.738281 -64.179688 C 1246.734375 -38.785156 1360.136719 116.171875 1334.742188 280.167969 L 1150.058594 1472.878906 C 1124.667969 1636.875 969.710938 1750.277344 805.710938 1724.882812 Z M 805.710938 1724.882812 " fill-opacity="1" fill-rule="nonzero"/></g></g></g><g clip-path="url(#638d171cf3)"><g clip-path="url(#3e63b3fa15)"><g clip-path="url(#8d0abeadc3)"><path fill="#d290ff" d="M 929.65625 234.90625 L 542.355469 199.503906 C 489.101562 194.636719 449.511719 147.082031 454.382812 93.828125 L 489.78125 -293.472656 C 494.652344 -346.726562 542.203125 -386.3125 595.457031 -381.445312 L 982.757812 -346.042969 C 1036.011719 -341.175781 1075.601562 -293.621094 1070.730469 -240.367188 L 1035.332031 146.929688 C 1030.460938 200.183594 982.910156 239.773438 929.65625 234.90625 Z M 929.65625 234.90625 " fill-opacity="1" fill-rule="nonzero"/></g></g></g><g clip-path="url(#cf261d4752)"><g clip-path="url(#f2e36f181f)"><g clip-path="url(#ef16cea182)"><path fill="#a435f0" d="M 587.902344 3.421875 L 232.828125 162.09375 C 184.003906 183.914062 126.207031 161.816406 104.390625 112.996094 L -54.28125 -242.078125 C -76.097656 -290.902344 -54.003906 -348.699219 -5.179688 -370.515625 L 349.890625 -529.1875 C 398.714844 -551.003906 456.511719 -528.910156 478.328125 -480.085938 L 637 -125.011719 C 658.816406 -76.191406 636.722656 -18.394531 587.902344 3.421875 Z M 587.902344 3.421875 " fill-opacity="1" fill-rule="nonzero"/></g></g></g><g clip-path="url(#b064704c03)"><g clip-path="url(#a060a0e4ba)"><g clip-path="url(#1ada7f35fd)"><path fill="#ecd0ff" d="M 568.730469 715.894531 C 584.203125 748.359375 600.09375 780.863281 614.246094 814.03125 C 636.1875 865.902344 655.183594 918.910156 674.527344 971.78125 C 683.878906 997.644531 683.585938 1024.824219 660.015625 1043.246094 C 645.132812 1054.746094 628.328125 1057.625 611 1063.296875 C 592.289062 1069.5 573.707031 1076.046875 555.195312 1082.773438 C 517.234375 1096.378906 479.609375 1110.851562 442.289062 1125.605469 C 368.171875 1154.914062 294.960938 1186.058594 221.375 1216.753906 C 160.3125 1242.230469 96.785156 1261.292969 35.148438 1285.800781 C 10.941406 1295.308594 -13.066406 1305.34375 -36.765625 1315.652344 C -57.242188 1324.523438 -76.5 1338.101562 -98.042969 1344.199219 C -114.246094 1348.640625 -131.226562 1346.414062 -144.472656 1335.785156 C -160.824219 1322.765625 -165.1875 1297.972656 -172.738281 1279.378906 C -181.460938 1258.25 -190.53125 1237.257812 -199.601562 1216.265625 C -218.265625 1174.476562 -236.578125 1132.554688 -251.425781 1089.300781 C -259.765625 1065.039062 -275.90625 1030.839844 -260.6875 1007.273438 C -259.195312 1003.910156 -257.046875 1000.695312 -254.765625 997.828125 C -231.679688 968.84375 -184.996094 955.664062 -152.117188 942.816406 C -65.660156 909.363281 20.875 877.667969 107.570312 844.316406 C 242.402344 792.253906 372.15625 730.601562 512.125 691.886719 C 522.167969 689.019531 532.757812 686.539062 542.652344 689.5 C 553.269531 692.777344 560.914062 701.78125 566.304688 711.652344 C 567.25 713.078125 568.023438 714.574219 568.730469 715.894531 Z M 568.730469 715.894531 " fill-opacity="1" fill-rule="nonzero"/></g></g></g><g clip-path="url(#39beea4e46)"><g clip-path="url(#ae3b1f1df2)"><g clip-path="url(#b983079f38)"><path fill="#ffffff" d="M 47.277344 1462.445312 L -692.019531 1347.972656 C -793.671875 1332.230469 -863.964844 1236.179688 -848.226562 1134.527344 L -733.75 395.226562 C -718.007812 293.574219 -621.960938 223.28125 -520.304688 239.023438 L 218.992188 353.5 C 320.644531 369.238281 390.9375 465.289062 375.199219 566.941406 L 260.722656 1306.242188 C 244.980469 1407.894531 148.933594 1478.1875 47.277344 1462.445312 Z M 47.277344 1462.445312 " fill-opacity="1" fill-rule="nonzero"/></g></g></g><g clip-path="url(#dee4d9d5c2)"><g clip-path="url(#45f62df423)"><g clip-path="url(#dad5b15e43)"><path fill="#d290ff" d="M 562.394531 697.589844 C 592.460938 717.324219 622.898438 736.875 652.203125 757.898438 C 697.863281 790.871094 741.59375 826.339844 785.550781 861.515625 C 806.957031 878.78125 820.804688 902.171875 810.207031 930.144531 C 803.441406 947.695312 790.566406 958.875 778.691406 972.707031 C 765.910156 987.714844 753.421875 1002.949219 741.078125 1018.300781 C 715.675781 1049.621094 691.011719 1081.507812 666.753906 1113.472656 C 618.578125 1176.96875 572.132812 1241.566406 525.132812 1305.972656 C 486.136719 1359.421875 441.703125 1408.664062 401.710938 1461.582031 C 385.945312 1482.265625 370.621094 1503.292969 355.703125 1524.402344 C 342.796875 1542.601562 333.371094 1564.203125 318.113281 1580.585938 C 306.5625 1592.785156 290.890625 1599.6875 274.050781 1597.46875 C 253.316406 1594.820312 236.730469 1575.878906 220.632812 1563.898438 C 202.214844 1550.359375 183.574219 1537.113281 164.929688 1523.863281 C 127.304688 1497.8125 89.90625 1471.46875 54.78125 1442.183594 C 35.070312 1425.761719 3.535156 1404.890625 4.324219 1376.847656 C 3.855469 1373.199219 4.027344 1369.335938 4.488281 1365.703125 C 9.199219 1328.945312 42.277344 1293.46875 63.726562 1265.433594 C 120.300781 1191.996094 177.855469 1120.019531 234.6875 1046.546875 C 322.976562 932.105469 401.941406 812.105469 501.542969 706.417969 C 508.644531 698.757812 516.414062 691.144531 526.410156 688.542969 C 537.1875 685.84375 548.394531 689.578125 558.121094 695.222656 C 559.667969 695.949219 561.105469 696.828125 562.394531 697.589844 Z M 562.394531 697.589844 " fill-opacity="1" fill-rule="nonzero"/></g></g></g><g clip-path="url(#5e90c3bc8f)"><g clip-path="url(#fe1046b417)"><g clip-path="url(#2acb5363bf)"><path fill="#9e4fd3" d="M 541.980469 833.785156 C 588.332031 844.4375 635.0625 854.699219 681.058594 867.300781 C 752.828125 887.203125 823.351562 911.09375 894.023438 934.515625 C 928.5 946.085938 956.421875 968.730469 956.132812 1008.285156 C 955.808594 1033.15625 944.980469 1052.933594 936.613281 1075.542969 C 927.65625 1100.027344 919.171875 1124.660156 910.917969 1149.363281 C 893.8125 1199.871094 877.878906 1250.746094 862.488281 1301.53125 C 831.925781 1402.402344 804.015625 1503.847656 775.332031 1605.308594 C 751.535156 1689.503906 719.066406 1770.984375 693.792969 1854.976562 C 683.746094 1887.871094 674.40625 1920.988281 665.605469 1954.015625 C 657.96875 1982.515625 656.203125 2013.628906 644.8125 2040.957031 C 636.09375 2061.394531 619.832031 2077.15625 597.933594 2082.140625 C 571.007812 2088.378906 541.734375 2072.519531 516.265625 2065.058594 C 487.210938 2056.730469 458.007812 2048.871094 428.800781 2041.011719 C 370.171875 2025.996094 311.691406 2010.511719 254.679688 1990.339844 C 222.691406 1979.035156 174 1967.648438 162.089844 1932.507812 C 159.835938 1928.199219 158.273438 1923.332031 157.175781 1918.613281 C 146.125 1870.871094 170.84375 1811.679688 184.558594 1767.058594 C 220.964844 1649.996094 259.257812 1534.300781 295.972656 1417.078125 C 352.863281 1234.605469 395.640625 1049.515625 470.582031 872.695312 C 475.867188 859.933594 482 846.921875 493.203125 839.101562 C 505.328125 830.800781 520.9375 830.285156 535.589844 832.8125 C 537.847656 833.003906 540.03125 833.433594 541.980469 833.785156 Z M 541.980469 833.785156 " fill-opacity="1" fill-rule="nonzero"/></g></g></g></svg>